<?xml version="1.0" encoding="UTF-8" standalone="no"?>
<svg
   xmlns:dc="http://purl.org/dc/elements/1.1/"
   xmlns:cc="http://creativecommons.org/ns#"
   xmlns:rdf="http://www.w3.org/1999/02/22-rdf-syntax-ns#"
   xmlns:svg="http://www.w3.org/2000/svg"
   xmlns="http://www.w3.org/2000/svg"
   id="svg86"
   viewBox="0 0 400 400"
   version="1.0">
  <metadata
     id="metadata90">
    <rdf:RDF>
      <cc:Work
         rdf:about="">
        <dc:format>image/svg+xml</dc:format>
        <dc:type
           rdf:resource="http://purl.org/dc/dcmitype/StillImage" />
        <dc:title></dc:title>
      </cc:Work>
    </rdf:RDF>
  </metadata>
  <defs
     id="defs34">
    <filter
       id="l">
      <feGaussianBlur
         id="feGaussianBlur2"
         stdDeviation="5.2571429" />
    </filter>
    <filter
       id="i">
      <feGaussianBlur
         id="feGaussianBlur5"
         stdDeviation="5.2985541" />
    </filter>
    <filter
       id="j">
      <feGaussianBlur
         id="feGaussianBlur8"
         stdDeviation="5.2571429" />
    </filter>
    <filter
       id="k">
      <feGaussianBlur
         id="feGaussianBlur11"
         stdDeviation="1.0463822" />
    </filter>
    <linearGradient
       gradientUnits="userSpaceOnUse"
       y2="332.36"
       y1="614.71"
       x2="-221.36"
       x1="-485.71"
       id="m">
      <stop
         id="stop14"
         offset="0"
         stop-color="#fff" />
      <stop
         id="stop16"
         offset="1"
         stop-opacity="0"
         stop-color="#fff" />
    </linearGradient>
    <radialGradient
       gradientTransform="matrix(0.65491,0,0,0.65491,518.11,-21.39)"
       gradientUnits="userSpaceOnUse"
       r="262.86"
       cy="332.36"
       cx="-485.71"
       id="n">
      <stop
         id="stop19"
         offset="0"
         stop-color="#f0f7f9" />
      <stop
         id="stop21"
         offset="1"
         stop-color="#ccc" />
    </radialGradient>
    <radialGradient
       gradientUnits="userSpaceOnUse"
       gradientTransform="matrix(0.20513968,-0.03889507,0.02377789,0.12540899,245.75822,149.7548)"
       r="52.319"
       cy="353"
       cx="-257.14"
       id="o">
      <stop
         id="stop24"
         offset="0"
         stop-color="#fff" />
      <stop
         id="stop26"
         offset="1"
         stop-opacity="0"
         stop-color="#fff" />
    </radialGradient>
    <radialGradient
       gradientUnits="userSpaceOnUse"
       gradientTransform="matrix(-0.21550367,0.02710004,-0.01632975,-0.12985085,77.59216,177.48914)"
       r="37.016"
       cy="219.21"
       cx="-260.01"
       id="p">
      <stop
         id="stop29"
         offset="0"
         stop-color="#fff" />
      <stop
         id="stop31"
         offset="1"
         stop-opacity="0"
         stop-color="#fff" />
    </radialGradient>
  </defs>
  <path
     style="fill-rule:evenodd;filter:url(#j)"
     transform="matrix(0.72854,0,0,0.72854,553.87,-39.1)"
     d="m -222.86,332.36 a 262.86,262.86 0 1 1 -525.71,0 262.86,262.86 0 1 1 525.71,0 z"
     id="path36" />
  <path
     style="fill:#333333;fill-rule:evenodd;stroke-width:0.72854"
     d="m 391.50758,196.99755 a 191.50402,191.50402 0 1 1 -383.0007678,0 191.50402,191.50402 0 1 1 383.0007678,0 z"
     id="path38" />
  <path
     style="fill-rule:evenodd;filter:url(#l)"
     transform="matrix(0.67662,0,0,0.67662,528.66,-28.62)"
     d="m -222.86,332.36 a 262.86,262.86 0 1 1 -525.71,0 262.86,262.86 0 1 1 525.71,0 z"
     id="path40" />
  <path
     style="fill:none;stroke:url(#m);stroke-width:4.14109993;stroke-linecap:round;filter:url(#i)"
     transform="matrix(0.65491,0,0,0.65491,518.11,-21.39)"
     d="m -222.86,332.36 a 262.86,262.86 0 1 1 -525.71,0 262.86,262.86 0 1 1 525.71,0 z"
     id="path42" />
  <path
     style="fill:url(#n);fill-rule:evenodd;stroke-width:0.65491003"
     d="m 372.15676,196.27589 a 172.14964,172.14964 0 1 1 -344.292739,0 172.14964,172.14964 0 1 1 344.292739,0 z"
     id="path44" />
  <path
     style="fill-rule:evenodd"
     d="m 195.2,37.43 1.2018,21.316 h 7.2506 l 1.215,-21.316 h -9.6675 z m -9.7732,0.66035 -4.0149,0.43583 2.5886,15.809 2.2056,-0.22452 -0.77921,-16.02 z m 29.201,0 -0.77921,16.02 2.2056,0.22452 2.5886,-15.809 -4.0149,-0.43583 z m -45.643,2.4037 -3.9621,0.83204 4.2262,15.465 2.1792,-0.47545 -2.4433,-15.822 z m 62.086,0 -2.4301,15.835 2.166,0.46225 4.213,-15.452 z m -78.212,4.0942 -3.83,1.2415 5.7979,14.937 2.1263,-0.69997 -4.0942,-15.479 z m 94.324,0 -4.081,15.505 2.1263,0.67355 5.7979,-14.937 -3.8432,-1.2415 z m -109.92,5.7582 -3.6848,1.6509 7.3299,14.237 2.0471,-0.91128 -5.6922,-14.977 z m 125.52,0 -5.6658,14.99 2.0339,0.91128 7.3299,-14.25 -3.698,-1.6509 z m -137.97,5.9564 -8.3864,4.8338 11.701,17.856 6.2865,-3.6187 -9.6015,-19.071 z m 150.45,0 -9.6279,19.071 6.2865,3.6187 11.701,-17.856 -8.36,-4.8338 z m -166.96,10.288 -3.2621,2.3508 10.13,12.415 1.7962,-1.3075 -8.6638,-13.458 z m 183.45,0 -8.6638,13.484 1.8094,1.2943 10.143,-12.401 -3.2885,-2.3773 z m -196.49,10.288 -2.998,2.6942 11.358,11.279 1.6641,-1.4792 -10.024,-12.494 z m 209.56,0.0132 -10.024,12.481 1.6377,1.4924 11.398,-11.266 -3.0112,-2.7074 z m -221.45,11.596 -2.7206,3.0112 12.507,10.024 1.4924,-1.6641 -11.279,-11.371 z m 233.35,0 -11.279,11.384 1.4924,1.6509 12.481,-10.024 -2.6942,-3.0112 z m -243.99,12.784 -2.3773,3.2621 13.471,8.677 1.3207,-1.8226 -12.415,-10.117 z m 254.62,0.0264 -12.401,10.117 1.2943,1.8094 13.484,-8.6638 -2.3773,-3.2621 z m -262.45,11.358 -4.8338,8.3864 19.071,9.6147 3.6319,-6.2865 -17.869,-11.715 z m 270.27,0 -17.869,11.715 3.6319,6.2865 19.071,-9.6147 -4.8338,-8.3864 z m -279.41,17.143 -1.6377,3.7112 14.964,5.679 0.91128,-2.0339 -14.237,-7.3563 z m 288.55,0.0264 -14.237,7.3431 0.89808,2.0207 14.977,-5.6658 -1.6377,-3.698 z m -294.7,15.426 -1.2415,3.8564 15.479,4.0678 0.69997,-2.1131 -14.937,-5.8111 z m 300.86,0.0132 -14.924,5.8243 0.68676,2.1131 15.479,-4.081 -1.2415,-3.8564 z m -305.37,15.994 -0.83204,3.9489 15.822,2.4433 0.47545,-2.1792 -15.465,-4.213 z m 309.89,0.0264 -15.465,4.213 0.46224,2.166 15.835,-2.4301 -0.83205,-3.9489 z m -312.7,16.363 -0.40942,4.0149 15.994,0.76601 0.23772,-2.2056 -15.822,-2.5754 z m 315.52,0.0264 -15.822,2.5622 0.23773,2.2188 15.994,-0.77921 -0.40941,-4.0017 z m -316.58,13.762 v 9.6675 l 21.316,-1.2018 v -7.2506 l -21.316,-1.215 z m 317.65,0 -21.316,1.215 v 7.2506 l 21.316,1.2018 v -9.6675 z m -301,18.635 -15.994,0.77921 0.40942,4.0149 15.822,-2.5622 -0.23772,-2.232 z m 284.35,0.0264 -0.23773,2.2188 15.822,2.5754 0.40941,-4.0281 -15.994,-0.76601 z m -282.13,14.765 -15.822,2.4301 0.83204,3.9621 15.465,-4.1998 -0.47545,-2.1924 z m 279.9,0.0132 -0.46224,2.1924 15.465,4.213 0.83205,-3.9621 -15.835,-2.4433 z m -276.13,14.462 -15.479,4.081 1.2415,3.83 14.911,-5.7979 -0.67355,-2.1131 z m 272.38,0.0264 -0.69997,2.1131 14.937,5.7979 1.2415,-3.83 -15.479,-4.081 z m -267.14,13.973 -14.964,5.679 1.6377,3.6848 14.237,-7.3299 -0.91128,-2.0339 z m 261.88,0.0132 -0.89808,2.0471 14.237,7.3167 1.6377,-3.6715 -14.977,-5.6922 z m -251.83,8.5317 -19.071,9.6147 4.8338,8.3732 17.869,-11.715 -3.6319,-6.2733 z m 241.79,0 -3.6319,6.2733 17.869,11.715 4.8338,-8.3732 -19.071,-9.6147 z m -237.11,17.433 -13.484,8.6638 2.3773,3.2753 12.401,-10.143 -1.2943,-1.7962 z m 232.42,0.0264 -1.3207,1.783 12.401,10.143 2.3905,-3.2621 -13.471,-8.6638 z m -223.12,11.662 -12.481,10.024 2.7074,3.0112 11.266,-11.371 -1.4924,-1.6641 z m 213.79,0.0264 -1.4924,1.6509 11.279,11.371 2.7074,-2.998 -12.494,-10.024 z m -203.3,10.618 -11.384,11.292 3.0112,2.7074 10.024,-12.507 -1.6509,-1.4924 z m 192.81,0.0264 -1.6509,1.4924 10.024,12.494 2.998,-2.7206 -11.371,-11.266 z m -181.27,9.4958 -10.143,12.401 3.2886,2.364 8.6638,-13.458 -1.8094,-1.3075 z m 169.71,0 -1.783,1.3207 8.6638,13.471 3.2621,-2.3905 -10.143,-12.401 z m -156.74,2.3773 -11.701,17.843 8.3864,4.8338 9.6015,-19.044 -6.2865,-3.6319 z m 143.8,0 -6.2865,3.6319 9.6279,19.044 8.36,-4.8338 -11.701,-17.843 z m -131.03,12.745 -7.3299,14.237 3.698,1.6509 5.6658,-14.977 -2.0339,-0.91128 z m 118.24,0 -2.0471,0.91128 5.6922,14.99 3.6716,-1.6377 -7.3167,-14.264 z m -104.34,5.4809 -5.7979,14.911 3.8564,1.2547 4.081,-15.492 -2.1395,-0.67356 z m 90.415,0 -2.1395,0.67356 4.1074,15.505 3.83,-1.2415 -5.7979,-14.937 z m -48.813,1.9943 -1.2018,21.329 h 9.6675 l -1.215,-21.329 h -7.2506 z m -27.167,1.9943 -4.213,15.439 3.9489,0.84525 2.4301,-15.835 -2.166,-0.44904 z m 61.558,0 -2.1792,0.44904 2.4433,15.835 3.9621,-0.84525 -4.2262,-15.439 z m -46.819,2.4433 -2.5886,15.809 4.0281,0.42263 0.77921,-15.994 -2.2188,-0.23773 z m 32.067,0 -2.2056,0.23773 0.76601,15.994 4.0281,-0.42263 -2.5886,-15.809 z"
     id="path50" />
  <path
     d="m 79.03,206.06 c -3.3678,0 -5.7979,-0.39621 -7.277,-1.215 -1.4924,-0.80563 -2.1527,-2.0867 -1.9943,-3.8432 v -0.39621 h 4.7677 v 0.39621 c 0,0.97732 0.383,1.7169 1.149,2.2188 0.7528,0.50186 1.8754,0.7528 3.3546,0.7528 2.4697,0 4.0281,-0.43583 4.6621,-1.2943 0.55469,-0.77921 0.85845,-2.5225 0.91128,-5.23 -2.1131,0.91128 -4.3583,1.3603 -6.7356,1.3603 -2.9848,0 -5.1111,-0.43583 -6.379,-1.3075 -1.2811,-0.87167 -1.915,-2.3376 -1.915,-4.3715 v -0.72639 c 0,-1.981 0.80563,-3.4602 2.4169,-4.4508 1.598,-0.97732 4.0149,-1.466 7.2506,-1.466 3.9489,0 6.6167,0.54149 7.9902,1.6245 1.3735,1.08301 2.0603,3.1829 2.0339,6.2865 v 2.298 c -0.0132,3.6848 -0.72639,6.1545 -2.1263,7.4488 -1.3867,1.2811 -4.0942,1.915 -8.1091,1.915 z m 5.4281,-13.722 c 0,-1.4264 -0.35659,-2.4037 -1.0566,-2.9188 -0.69997,-0.52828 -2.0339,-0.77921 -3.9753,-0.77921 -1.8094,0 -3.1036,0.27735 -3.8696,0.84525 -0.77921,0.5679 -1.1622,1.5188 -1.1622,2.8527 v 0.73959 c 0,1.2679 0.39621,2.1792 1.1886,2.7338 0.77921,0.55469 2.0603,0.84525 3.8432,0.84525 1.6509,0 2.8923,-0.31697 3.7508,-0.92449 0.84525,-0.60752 1.2811,-1.4924 1.2811,-2.6546 v -0.73959 z"
     id="path52" />
  <path
     d="m 325.09,191.2 c 0,-0.95661 -0.36832,-1.6291 -1.0865,-2.0269 -0.71822,-0.40727 -1.9337,-0.60617 -3.6279,-0.60617 -1.5469,0 -2.7255,0.24626 -3.5174,0.73877 -0.8103,0.49251 -1.1786,1.1934 -1.1234,2.0932 v 0.56828 h -4.825 v -0.56828 c -0.18416,-1.5722 0.53406,-2.7846 2.1731,-3.637 1.639,-0.85242 4.0883,-1.2786 7.3111,-1.2786 3.1123,0 5.4695,0.35992 7.0901,1.0892 1.6022,0.7293 2.4125,1.7901 2.4125,3.1919 v 0.54934 c 0,1.6291 -0.6998,2.7751 -2.1362,3.4476 -0.79188,0.38832 -1.9521,0.65352 -3.4622,0.80507 1.6206,0.16101 2.836,0.42621 3.6095,0.80507 1.3259,0.63458 1.9889,1.8848 1.9889,3.7317 v 1.0608 c 0,1.6291 -0.84713,2.8604 -2.5414,3.6749 -1.6943,0.81454 -4.2356,1.2218 -7.6426,1.2218 -3.1123,0 -5.4695,-0.43569 -7.0901,-1.326 -1.639,-0.88084 -2.3941,-2.1405 -2.2836,-3.7791 v -0.56828 h 4.7697 v 0.56828 c -0.0368,1.0229 0.31307,1.7806 1.0681,2.2731 0.73663,0.49251 1.8968,0.73877 3.4622,0.73877 1.8784,0 3.2596,-0.2652 4.162,-0.77666 0.88396,-0.52092 1.3259,-1.3165 1.3259,-2.3963 v -1.0513 c 0,-0.95661 -0.44198,-1.7048 -1.3259,-2.2447 -0.90238,-0.53987 -2.1546,-0.80507 -3.7568,-0.80507 h -1.418 v -2.1974 h 0.49722 c 2.081,0 3.5911,-0.21784 4.5303,-0.65353 0.95763,-0.43568 1.4364,-1.1366 1.4364,-2.0932 v -0.54934 z"
     id="path54" />
  <path
     d="m 206.39,63.97 c -3.3414,0 -5.7714,0.39621 -7.3299,1.1886 -1.5585,0.79239 -2.2452,1.981 -2.0603,3.5791 v 0.5811 h 4.8074 v -0.5811 c -0.0396,-1.0169 0.27734,-1.7169 0.93769,-2.1131 0.67356,-0.39621 1.8754,-0.62073 3.6451,-0.62073 1.3735,0 2.4829,0.23772 3.3282,0.69997 0.84525,0.47545 1.2679,1.1094 1.2679,1.8886 0,1.3867 -1.0434,2.9716 -3.1565,4.7941 -2.0999,1.8094 -5.8507,4.3187 -11.213,7.5412 v 2.3244 h 19.52 v -2.0735 h -14.765 c 5.3224,-3.2621 8.994,-5.745 11.041,-7.462 2.2584,-1.915 3.381,-3.6451 3.381,-5.1639 0,-1.5056 -0.79242,-2.6414 -2.3905,-3.4074 -1.598,-0.79242 -3.9357,-1.1754 -7.0129,-1.1754 z m -15.914,0.1981 c -1.1226,0.58111 -2.166,1.0169 -3.0904,1.3735 -0.91128,0.34338 -2.0735,0.72639 -3.4734,1.1094 v 2.2848 c 1.8754,-0.50187 3.4338,-0.99052 4.6357,-1.4396 l 0.9509,-0.3698 v 16.126 h 4.8206 v -19.084 h -3.8432 z"
     id="path56" />
  <path
     d="m 200.38,304.25 c 3.3678,0 5.7979,0.40941 7.2771,1.215 1.4792,0.80563 2.1527,2.0999 1.9942,3.8564 v 0.39621 h -4.7677 v -0.39621 c 0,-0.97731 -0.38301,-1.7169 -1.149,-2.2188 -0.76601,-0.51507 -1.8754,-0.76601 -3.3546,-0.76601 -2.2452,0 -3.7112,0.48866 -4.3979,1.466 -0.59432,0.84525 -0.92449,2.4961 -0.97732,4.9526 2.1263,-0.83204 4.4376,-1.2414 6.9469,-1.2414 2.8263,0 4.847,0.43583 6.062,1.3075 1.215,0.87166 1.8226,2.3244 1.8226,4.3715 v 0.72638 c 0,1.981 -0.83204,3.4602 -2.4697,4.4376 -1.6377,0.99053 -4.1074,1.4792 -7.3827,1.4792 -3.4074,0 -5.8903,-0.50187 -7.462,-1.4924 -1.5716,-0.99053 -2.364,-2.5622 -2.364,-4.7149 v -2.2848 c 0.0264,-4.5828 0.67356,-7.5808 1.981,-8.994 1.2811,-1.3999 4.0281,-2.0999 8.2412,-2.0999 z m -5.4017,13.722 c 0,1.4396 0.35659,2.4169 1.0566,2.932 0.69997,0.51508 2.0207,0.77922 3.9489,0.77922 1.8094,0 3.1036,-0.29056 3.8696,-0.85846 0.76601,-0.5679 1.1622,-1.5188 1.1622,-2.8527 v -0.72638 c 0,-1.2679 -0.39621,-2.1792 -1.1886,-2.7338 -0.79242,-0.5679 -2.0735,-0.84525 -3.8432,-0.84525 -1.6377,0 -2.8791,0.30376 -3.7244,0.91128 -0.85846,0.60752 -1.2811,1.4924 -1.2811,2.6678 v 0.72638 z"
     id="path58" />
  <path
     d="m 132.24,80.94 c -1.1226,0.58111 -2.166,1.0434 -3.1036,1.4 -0.91128,0.34338 -2.0603,0.69997 -3.4734,1.083 v 2.2848 c 1.8886,-0.48866 3.4338,-0.96411 4.6489,-1.4132 l 0.95091,-0.36979 v 16.126 h 4.8074 v -19.111 h -3.83 z m 16.165,0 c -1.1226,0.58111 -2.1395,1.0434 -3.0772,1.4 -0.91128,0.34338 -2.0735,0.69997 -3.4734,1.083 v 2.2848 c 1.8754,-0.48866 3.4074,-0.96411 4.6224,-1.4132 l 0.95091,-0.36979 v 16.126 h 4.8338 v -19.111 h -3.8564 z"
     id="path60" />
  <path
     d="m 104.85,125.01 c -3.3414,0 -5.7847,0.42263 -7.3959,1.2547 -1.6113,0.83204 -2.4169,2.1263 -2.4169,3.8564 v 9.0072 c 0,1.7433 0.84525,3.1036 2.549,4.0413 1.7037,0.9509 4.1206,1.4264 7.2638,1.4264 3.2093,0 5.679,-0.47545 7.3563,-1.3999 1.6641,-0.9377 2.4961,-2.2848 2.4961,-4.0678 v -9.0072 c 0,-1.8094 -0.766,-3.1168 -2.3112,-3.9225 -1.5452,-0.79242 -4.0678,-1.1886 -7.5412,-1.1886 z m -15.677,0.19811 c -1.1226,0.58111 -2.1395,1.0434 -3.0772,1.3999 -0.91128,0.34338 -2.0735,0.69997 -3.4734,1.083 v 2.2848 c 1.8754,-0.50186 3.4338,-0.96411 4.6357,-1.4264 l 0.93769,-0.383 v 16.152 h 4.8338 v -19.111 h -3.8564 z m 15.677,1.9018 c 1.7697,0 3.064,0.23772 3.8564,0.69997 0.79242,0.47545 1.1886,1.2414 1.1886,2.3112 v 9.0072 c 0,1.083 -0.42262,1.915 -1.2811,2.4829 -0.84524,0.5547 -2.1131,0.81884 -3.764,0.81884 -1.7037,0 -2.9584,-0.26414 -3.7772,-0.80563 -0.81884,-0.54149 -1.2282,-1.3735 -1.2282,-2.4961 v -9.0072 c 0,-1.1226 0.383,-1.915 1.1226,-2.3508 0.73959,-0.44904 2.0207,-0.66035 3.8829,-0.66035 z"
     id="path62" />
  <path
     d="m 101.74,257.72 c 1.6206,0.17996 2.8176,0.48304 3.5911,0.89979 1.3259,0.73877 2.0073,2.15 2.0073,4.2432 v -0.40727 c 0,1.7333 -0.86554,3.0877 -2.5966,4.0727 -1.7311,0.97555 -4.1436,1.4681 -7.2006,1.4681 -3.3149,0 -5.7826,-0.45462 -7.3848,-1.3544 -1.5838,-0.90925 -2.3941,-2.3016 -2.3941,-4.1864 v 0.40727 c 0,-1.9606 0.73664,-3.3434 2.2099,-4.1485 0.92079,-0.49251 2.2283,-0.83348 3.9594,-1.0134 -1.3996,-0.1989 -2.523,-0.50198 -3.3701,-0.91873 -1.4733,-0.73876 -2.2099,-1.9132 -2.2099,-3.5234 v 0.37886 c 0,-1.667 0.79188,-2.9551 2.4125,-3.8643 1.6022,-0.90926 3.8857,-1.3639 6.8507,-1.3639 3.2228,0 5.58,0.41674 7.0717,1.2597 1.4733,0.83349 2.2283,2.1595 2.2283,3.9685 v -0.37886 c 0,1.6101 -0.68139,2.7846 -2.0257,3.5328 -0.79188,0.43568 -1.8416,0.73877 -3.1491,0.92819 z m -4.1252,-1.0703 c 1.5285,0 2.6519,-0.27468 3.3885,-0.81455 0.71822,-0.53987 1.0865,-1.3828 1.0865,-2.5099 v 0.37886 c 0,-1.1366 -0.3499,-1.9511 -1.0497,-2.4531 -0.69981,-0.50199 -1.8416,-0.75771 -3.4254,-0.75771 -1.4733,0 -2.5782,0.27467 -3.3333,0.81454 -0.73663,0.53039 -1.1234,1.3355 -1.1234,2.3963 v -0.37886 c 0,1.1271 0.36831,1.97 1.105,2.5099 0.71821,0.53987 1.8416,0.81455 3.3517,0.81455 z m -0.0737,2.1311 c -1.8048,0 -3.0754,0.28414 -3.8305,0.85243 -0.75505,0.55881 -1.1234,1.506 -1.1234,2.8225 v -0.40727 c 0,1.4586 0.34991,2.4626 1.0313,2.993 0.6998,0.53039 2.0073,0.79559 3.9226,0.79559 1.7863,0 3.057,-0.28414 3.8305,-0.87137 0.75505,-0.57775 1.1418,-1.5533 1.1418,-2.9172 v 0.40727 c 0,-1.4207 -0.3499,-2.3868 -1.0497,-2.8982 -0.68139,-0.51146 -1.9889,-0.77666 -3.9226,-0.77666 z"
     id="path64" />
  <path
     d="m 133.03,308.46 12.431,-17.02 h -14.272 v -2.0932 h 18.563 v 2.0932 l -11.013,17.02 h -5.7089 z"
     id="path66" />
  <path
     d="m 269.96,303.06 c 0,2.15 -0.6998,3.6749 -2.1178,4.5557 -1.3996,0.88084 -3.8489,1.3165 -7.2927,1.3165 -3.4253,0 -5.8194,-0.32202 -7.1638,-0.95661 -1.3444,-0.64405 -2.081,-1.8185 -2.2467,-3.5139 v -0.56828 h 4.7697 v 0.56828 c 0.1105,0.80507 0.47881,1.3923 1.1418,1.7712 0.66298,0.36939 1.6574,0.55882 2.9834,0.55882 2.0442,0 3.4069,-0.27467 4.1067,-0.83349 0.71822,-0.54934 1.0681,-1.6291 1.0681,-3.2392 v -1.2786 c 0,-1.1934 -0.33148,-2.0364 -0.97604,-2.5099 -0.62614,-0.47357 -1.7679,-0.71035 -3.4069,-0.71035 -1.5653,0 -2.7255,0.21784 -3.4806,0.64405 -0.77347,0.42622 -1.1234,1.0703 -1.105,1.9322 h -4.917 l 0.3499,-11.252 h 17.366 v 2.15 h -12.983 l -0.18416,6.0806 c 0.82871,-0.42621 1.5101,-0.73877 2.0626,-0.94714 1.2339,-0.46409 2.7255,-0.69141 4.4935,-0.69141 2.8176,0 4.7697,0.41674 5.8746,1.2408 1.105,0.82401 1.6574,2.2921 1.6574,4.4042 v 1.2786 z"
     id="path68" />
  <path
     d="m 304.56,260.62 h -13.388 v -1.97 L 302.7,246.205 h 6.685 v 12.332 h 4.2725 v 2.0837 h -4.2725 v 4.6884 h -4.825 v -4.6884 z m 0,-2.0837 v -9.9639 l -9.1342,9.9639 z"
     id="path70" />
  <path
     d="m 312.86,128.78 c 0,1.5154 -1.1234,3.2297 -3.3885,5.1524 -2.0442,1.7238 -5.7089,4.2053 -11.031,7.4635 h 14.77 v 2.0837 h -19.502 v -2.3205 c 5.3406,-3.2297 9.079,-5.7491 11.178,-7.5582 2.1178,-1.8185 3.1675,-3.4192 3.1675,-4.7925 0,-0.77666 -0.42356,-1.4018 -1.2707,-1.8753 -0.84713,-0.4641 -1.9521,-0.70088 -3.3148,-0.70088 -1.7679,0 -3.0018,0.1989 -3.6648,0.60617 -0.66297,0.3978 -0.97604,1.1082 -0.92079,2.1311 v 0.56829 h -4.8065 v -0.56829 c -0.20257,-1.6007 0.47881,-2.7941 2.0442,-3.5897 1.56539,-0.7956 4.0146,-1.1934 7.3479,-1.1934 3.0754,0 5.4143,0.39779 6.998,1.1744 1.6022,0.77665 2.3941,1.9227 2.3941,3.4192 z"
     id="path72" />
  <path
     d="M 261.17,99.09 V 82.96 l -0.95762,0.35992 c -1.197,0.45462 -2.744,0.92819 -4.6224,1.4207 v -2.2826 c 1.3996,-0.37886 2.5598,-0.73877 3.4622,-1.0892 0.93921,-0.35045 1.9705,-0.81454 3.0939,-1.3923 h 3.8305 v 19.113 h -4.8065 z"
     id="path74" />
  <path
     style="opacity:0.8;fill:url(#p);fill-rule:evenodd;stroke-width:0.2172"
     d="m 130.81485,140.07426 c -3.72672,0 -6.96604,1.96086 -8.81007,4.89374 2.42482,-2.30884 5.6952,-3.73324 9.29877,-3.73324 2.47173,0 4.78557,0.675 6.78076,1.83943 -1.8793,-1.8394 -4.42849,-2.99997 -7.26946,-2.99997 z"
     id="path82" />
</svg>
