<?xml version="1.0" encoding="UTF-8"?>
<svg version="1.0" viewBox="0 0 400 400" xmlns="http://www.w3.org/2000/svg">
 <defs>
  <filter id="l">
   <feGaussianBlur stdDeviation="5.2571429"/>
  </filter>
  <filter id="i">
   <feGaussianBlur stdDeviation="5.2985541"/>
  </filter>
  <filter id="j">
   <feGaussianBlur stdDeviation="5.2571429"/>
  </filter>
  <filter id="k">
   <feGaussianBlur stdDeviation="1.0463822"/>
  </filter>
  <linearGradient id="m" x1="-485.71" x2="-221.36" y1="614.71" y2="332.36" gradientUnits="userSpaceOnUse">
   <stop stop-color="#fff" offset="0"/>
   <stop stop-color="#fff" stop-opacity="0" offset="1"/>
  </linearGradient>
  <radialGradient id="n" cx="-485.71" cy="332.36" r="262.86" gradientUnits="userSpaceOnUse">
   <stop stop-color="#f0f7f9" offset="0"/>
   <stop stop-color="#ccc" offset="1"/>
  </radialGradient>
  <radialGradient id="o" cx="-257.14" cy="353" r="52.319" gradientTransform="matrix(1.6357 -.014127 .0086362 .99996 160.42 -3.6194)" gradientUnits="userSpaceOnUse">
   <stop stop-color="#fff" offset="0"/>
   <stop stop-color="#fff" stop-opacity="0" offset="1"/>
  </radialGradient>
  <radialGradient id="p" cx="-260.01" cy="219.21" r="37.016" gradientTransform="matrix(-.99219 .12477 -.075183 -.59784 -502.2 415.88)" gradientUnits="userSpaceOnUse">
   <stop stop-color="#fff" offset="0"/>
   <stop stop-color="#fff" stop-opacity="0" offset="1"/>
  </radialGradient>
 </defs>
 <g transform="translate(-278.34 -412.89)">
  <path transform="matrix(.72854 0 0 .72854 832.21 373.79)" d="m-222.86 332.36a262.86 262.86 0 1 1 -525.71 0 262.86 262.86 0 1 1 525.71 0z" fill-rule="evenodd" filter="url(#j)"/>
  <path transform="matrix(.72854 0 0 .72854 832.21 367.75)" d="m-222.86 332.36a262.86 262.86 0 1 1 -525.71 0 262.86 262.86 0 1 1 525.71 0z" fill="#333" fill-rule="evenodd"/>
  <path transform="matrix(.67662 0 0 .67662 807 384.27)" d="m-222.86 332.36a262.86 262.86 0 1 1 -525.71 0 262.86 262.86 0 1 1 525.71 0z" fill-rule="evenodd" filter="url(#l)"/>
  <path transform="matrix(.65491 0 0 .65491 796.45 391.5)" d="m-222.86 332.36a262.86 262.86 0 1 1 -525.71 0 262.86 262.86 0 1 1 525.71 0z" fill="none" filter="url(#i)" stroke="url(#m)" stroke-linecap="round" stroke-width="4.1411"/>
  <path transform="matrix(.65491 0 0 .65491 796.45 391.5)" d="m-222.86 332.36a262.86 262.86 0 1 1 -525.71 0 262.86 262.86 0 1 1 525.71 0z" fill="url(#n)" fill-rule="evenodd"/>
  <path d="m477.98 471.85-5.5531 139.24 2.247-4.9e-4 -2.4139 24.206 11.102-2e-3 -2.4157-24.203 2.588 1e-3 -5.5542-139.24z" fill-rule="evenodd"/>
  <path d="m529.32 523.26-58.115 86.445 2.0929 1.2381-11.452 14.229 10.36 6.1267 6.9474-16.894 2.4118 1.4264 47.755-92.572z" fill-rule="evenodd"/>
  <path d="m473.54 450.32 1.2018 21.316h7.2506l1.215-21.316h-9.6675zm-9.7732 0.66035-4.0149 0.43583 2.5886 15.809 2.2056-0.22452-0.77921-16.02zm29.201 0-0.77921 16.02 2.2056 0.22452 2.5886-15.809-4.0149-0.43583zm-45.643 2.4037-3.9621 0.83204 4.2262 15.465 2.1792-0.47545-2.4433-15.822zm62.086 0-2.4301 15.835 2.166 0.46225 4.213-15.452-3.9489-0.84525zm-78.212 4.0942-3.83 1.2415 5.7979 14.937 2.1263-0.69997-4.0942-15.479zm94.324 0-4.081 15.505 2.1263 0.67355 5.7979-14.937-3.8432-1.2415zm-109.92 5.7582-3.6848 1.6509 7.3299 14.237 2.0471-0.91128-5.6922-14.977zm125.52 0-5.6658 14.99 2.0339 0.91128 7.3299-14.25-3.698-1.6509zm-137.97 5.9564-8.3864 4.8338 11.701 17.856 6.2865-3.6187-9.6015-19.071zm150.45 0-9.6279 19.071 6.2865 3.6187 11.701-17.856-8.36-4.8338zm-166.96 10.288-3.2621 2.3508 10.13 12.415 1.7962-1.3075-8.6638-13.458zm183.45 0-8.6638 13.484 1.8094 1.2943 10.143-12.401-3.2885-2.3773zm-196.49 10.288-2.998 2.6942 11.358 11.279 1.6641-1.4792-10.024-12.494zm209.56 0.0132-10.024 12.481 1.6377 1.4924 11.398-11.266-3.0112-2.7074zm-221.45 11.596-2.7206 3.0112 12.507 10.024 1.4924-1.6641-11.279-11.371zm233.35 0-11.279 11.384 1.4924 1.6509 12.481-10.024-2.6942-3.0112zm-243.99 12.784-2.3773 3.2621 13.471 8.677 1.3207-1.8226-12.415-10.117zm254.62 0.0264-12.401 10.117 1.2943 1.8094 13.484-8.6638-2.3773-3.2621zm-262.45 11.358-4.8338 8.3864 19.071 9.6147 3.6319-6.2865-17.869-11.715zm270.27 0-17.869 11.715 3.6319 6.2865 19.071-9.6147-4.8338-8.3864zm-279.41 17.143-1.6377 3.7112 14.964 5.679 0.91128-2.0339-14.237-7.3563zm288.55 0.0264-14.237 7.3431 0.89808 2.0207 14.977-5.6658-1.6377-3.698zm-294.7 15.426-1.2415 3.8564 15.479 4.0678 0.69997-2.1131-14.937-5.8111zm300.86 0.0132-14.924 5.8243 0.68676 2.1131 15.479-4.081-1.2415-3.8564zm-305.37 15.994-0.83204 3.9489 15.822 2.4433 0.47545-2.1792-15.465-4.213zm309.89 0.0264-15.465 4.213 0.46224 2.166 15.835-2.4301-0.83205-3.9489zm-312.7 16.363-0.40942 4.0149 15.994 0.76601 0.23772-2.2056-15.822-2.5754zm315.52 0.0264-15.822 2.5622 0.23773 2.2188 15.994-0.77921-0.40941-4.0017zm-316.58 13.762v9.6675l21.316-1.2018v-7.2506l-21.316-1.215zm317.65 0-21.316 1.215v7.2506l21.316 1.2018v-9.6675zm-301 18.635-15.994 0.77921 0.40942 4.0149 15.822-2.5622-0.23772-2.232zm284.35 0.0264-0.23773 2.2188 15.822 2.5754 0.40941-4.0281-15.994-0.76601zm-282.13 14.765-15.822 2.4301 0.83204 3.9621 15.465-4.1998-0.47545-2.1924zm279.9 0.0132-0.46224 2.1924 15.465 4.213 0.83205-3.9621-15.835-2.4433zm-276.13 14.462-15.479 4.081 1.2415 3.83 14.911-5.7979-0.67355-2.1131zm272.38 0.0264-0.69997 2.1131 14.937 5.7979 1.2415-3.83-15.479-4.081zm-267.14 13.973-14.964 5.679 1.6377 3.6848 14.237-7.3299-0.91128-2.0339zm261.88 0.0132-0.89808 2.0471 14.237 7.3167 1.6377-3.6715-14.977-5.6922zm-251.83 8.5317-19.071 9.6147 4.8338 8.3732 17.869-11.715-3.6319-6.2733zm241.79 0-3.6319 6.2733 17.869 11.715 4.8338-8.3732-19.071-9.6147zm-237.11 17.433-13.484 8.6638 2.3773 3.2753 12.401-10.143-1.2943-1.7962zm232.42 0.0264-1.3207 1.783 12.401 10.143 2.3905-3.2621-13.471-8.6638zm-223.12 11.662-12.481 10.024 2.7074 3.0112 11.266-11.371-1.4924-1.6641zm213.79 0.0264-1.4924 1.6509 11.279 11.371 2.7074-2.998-12.494-10.024zm-203.3 10.618-11.384 11.292 3.0112 2.7074 10.024-12.507-1.6509-1.4924zm192.81 0.0264-1.6509 1.4924 10.024 12.494 2.998-2.7206-11.371-11.266zm-181.27 9.4958-10.143 12.401 3.2886 2.364 8.6638-13.458-1.8094-1.3075zm169.71 0-1.783 1.3207 8.6638 13.471 3.2621-2.3905-10.143-12.401zm-156.74 2.3773-11.701 17.843 8.3864 4.8338 9.6015-19.044-6.2865-3.6319zm143.8 0-6.2865 3.6319 9.6279 19.044 8.36-4.8338-11.701-17.843zm-131.03 12.745-7.3299 14.237 3.698 1.6509 5.6658-14.977-2.0339-0.91128zm118.24 0-2.0471 0.91128 5.6922 14.99 3.6716-1.6377-7.3167-14.264zm-104.34 5.4809-5.7979 14.911 3.8564 1.2547 4.081-15.492-2.1395-0.67356zm90.415 0-2.1395 0.67356 4.1074 15.505 3.83-1.2415-5.7979-14.937zm-48.813 1.9943-1.2018 21.329h9.6675l-1.215-21.329h-7.2506zm-27.167 1.9943-4.213 15.439 3.9489 0.84525 2.4301-15.835-2.166-0.44904zm61.558 0-2.1792 0.44904 2.4433 15.835 3.9621-0.84525-4.2262-15.439zm-46.819 2.4433-2.5886 15.809 4.0281 0.42263 0.77921-15.994-2.2188-0.23773zm32.067 0-2.2056 0.23773 0.76601 15.994 4.0281-0.42263-2.5886-15.809z" fill-rule="evenodd"/>
  <path d="m357.37 618.95c-3.3678 0-5.7979-0.39621-7.277-1.215-1.4924-0.80563-2.1527-2.0867-1.9943-3.8432v-0.39621h4.7677v0.39621c0 0.97732 0.383 1.7169 1.149 2.2188 0.7528 0.50186 1.8754 0.7528 3.3546 0.7528 2.4697 0 4.0281-0.43583 4.6621-1.2943 0.55469-0.77921 0.85845-2.5225 0.91128-5.23-2.1131 0.91128-4.3583 1.3603-6.7356 1.3603-2.9848 0-5.1111-0.43583-6.379-1.3075-1.2811-0.87167-1.915-2.3376-1.915-4.3715v-0.72639c0-1.981 0.80563-3.4602 2.4169-4.4508 1.598-0.97732 4.0149-1.466 7.2506-1.466 3.9489 0 6.6167 0.54149 7.9902 1.6245s2.0603 3.1829 2.0339 6.2865v2.298c-0.0132 3.6848-0.72639 6.1545-2.1263 7.4488-1.3867 1.2811-4.0942 1.915-8.1091 1.915zm5.4281-13.722c0-1.4264-0.35659-2.4037-1.0566-2.9188-0.69997-0.52828-2.0339-0.77921-3.9753-0.77921-1.8094 0-3.1036 0.27735-3.8696 0.84525-0.77921 0.5679-1.1622 1.5188-1.1622 2.8527v0.73959c0 1.2679 0.39621 2.1792 1.1886 2.7338 0.77921 0.55469 2.0603 0.84525 3.8432 0.84525 1.6509 0 2.8923-0.31697 3.7508-0.92449 0.84525-0.60752 1.2811-1.4924 1.2811-2.6546v-0.73959z"/>
  <path d="m603.43 604.09c0-0.95661-0.36832-1.6291-1.0865-2.0269-0.71822-0.40727-1.9337-0.60617-3.6279-0.60617-1.5469 0-2.7255 0.24626-3.5174 0.73877-0.8103 0.49251-1.1786 1.1934-1.1234 2.0932v0.56828h-4.825v-0.56828c-0.18416-1.5722 0.53406-2.7846 2.1731-3.637 1.639-0.85242 4.0883-1.2786 7.3111-1.2786 3.1123 0 5.4695 0.35992 7.0901 1.0892 1.6022 0.7293 2.4125 1.7901 2.4125 3.1919v0.54934c0 1.6291-0.6998 2.7751-2.1362 3.4476-0.79188 0.38832-1.9521 0.65352-3.4622 0.80507 1.6206 0.16101 2.836 0.42621 3.6095 0.80507 1.3259 0.63458 1.9889 1.8848 1.9889 3.7317v1.0608c0 1.6291-0.84713 2.8604-2.5414 3.6749-1.6943 0.81454-4.2356 1.2218-7.6426 1.2218-3.1123 0-5.4695-0.43569-7.0901-1.326-1.639-0.88084-2.3941-2.1405-2.2836-3.7791v-0.56828h4.7697v0.56828c-0.0368 1.0229 0.31307 1.7806 1.0681 2.2731 0.73663 0.49251 1.8968 0.73877 3.4622 0.73877 1.8784 0 3.2596-0.2652 4.162-0.77666 0.88396-0.52092 1.3259-1.3165 1.3259-2.3963v-1.0513c0-0.95661-0.44198-1.7048-1.3259-2.2447-0.90238-0.53987-2.1546-0.80507-3.7568-0.80507h-1.418v-2.1974h0.49722c2.081 0 3.5911-0.21784 4.5303-0.65353 0.95763-0.43568 1.4364-1.1366 1.4364-2.0932v-0.54934z"/>
  <path d="m484.73 476.86c-3.3414 0-5.7714 0.39621-7.3299 1.1886s-2.2452 1.981-2.0603 3.5791v0.5811h4.8074v-0.5811c-0.0396-1.0169 0.27734-1.7169 0.93769-2.1131 0.67356-0.39621 1.8754-0.62073 3.6451-0.62073 1.3735 0 2.4829 0.23772 3.3282 0.69997 0.84525 0.47545 1.2679 1.1094 1.2679 1.8886 0 1.3867-1.0434 2.9716-3.1565 4.7941-2.0999 1.8094-5.8507 4.3187-11.213 7.5412v2.3244h19.52v-2.0735h-14.765c5.3224-3.2621 8.994-5.745 11.041-7.462 2.2584-1.915 3.381-3.6451 3.381-5.1639 0-1.5056-0.79242-2.6414-2.3905-3.4074-1.598-0.79242-3.9357-1.1754-7.0129-1.1754zm-15.914 0.1981c-1.1226 0.58111-2.166 1.0169-3.0904 1.3735-0.91128 0.34338-2.0735 0.72639-3.4734 1.1094v2.2848c1.8754-0.50187 3.4338-0.99052 4.6357-1.4396l0.9509-0.3698v16.126h4.8206v-19.084h-3.8432z"/>
  <path d="m478.72 717.14c3.3678 0 5.7979 0.40941 7.2771 1.215 1.4792 0.80563 2.1527 2.0999 1.9942 3.8564v0.39621h-4.7677v-0.39621c0-0.97731-0.38301-1.7169-1.149-2.2188-0.76601-0.51507-1.8754-0.76601-3.3546-0.76601-2.2452 0-3.7112 0.48866-4.3979 1.466-0.59432 0.84525-0.92449 2.4961-0.97732 4.9526 2.1263-0.83204 4.4376-1.2414 6.9469-1.2414 2.8263 0 4.847 0.43583 6.062 1.3075 1.215 0.87166 1.8226 2.3244 1.8226 4.3715v0.72638c0 1.981-0.83204 3.4602-2.4697 4.4376-1.6377 0.99053-4.1074 1.4792-7.3827 1.4792-3.4074 0-5.8903-0.50187-7.462-1.4924-1.5716-0.99053-2.364-2.5622-2.364-4.7149v-2.2848c0.0264-4.5828 0.67356-7.5808 1.981-8.994 1.2811-1.3999 4.0281-2.0999 8.2412-2.0999zm-5.4017 13.722c0 1.4396 0.35659 2.4169 1.0566 2.932 0.69997 0.51508 2.0207 0.77922 3.9489 0.77922 1.8094 0 3.1036-0.29056 3.8696-0.85846 0.76601-0.5679 1.1622-1.5188 1.1622-2.8527v-0.72638c0-1.2679-0.39621-2.1792-1.1886-2.7338-0.79242-0.5679-2.0735-0.84525-3.8432-0.84525-1.6377 0-2.8791 0.30376-3.7244 0.91128-0.85846 0.60752-1.2811 1.4924-1.2811 2.6678v0.72638z"/>
  <path d="m410.58 493.83c-1.1226 0.58111-2.166 1.0434-3.1036 1.4-0.91128 0.34338-2.0603 0.69997-3.4734 1.083v2.2848c1.8886-0.48866 3.4338-0.96411 4.6489-1.4132l0.95091-0.36979v16.126h4.8074v-19.111h-3.83zm16.165 0c-1.1226 0.58111-2.1395 1.0434-3.0772 1.4-0.91128 0.34338-2.0735 0.69997-3.4734 1.083v2.2848c1.8754-0.48866 3.4074-0.96411 4.6224-1.4132l0.95091-0.36979v16.126h4.8338v-19.111h-3.8564z"/>
  <path d="m383.19 537.9c-3.3414 0-5.7847 0.42263-7.3959 1.2547-1.6113 0.83204-2.4169 2.1263-2.4169 3.8564v9.0072c0 1.7433 0.84525 3.1036 2.549 4.0413 1.7037 0.9509 4.1206 1.4264 7.2638 1.4264 3.2093 0 5.679-0.47545 7.3563-1.3999 1.6641-0.9377 2.4961-2.2848 2.4961-4.0678v-9.0072c0-1.8094-0.766-3.1168-2.3112-3.9225-1.5452-0.79242-4.0678-1.1886-7.5412-1.1886zm-15.677 0.19811c-1.1226 0.58111-2.1395 1.0434-3.0772 1.3999-0.91128 0.34338-2.0735 0.69997-3.4734 1.083v2.2848c1.8754-0.50186 3.4338-0.96411 4.6357-1.4264l0.93769-0.383v16.152h4.8338v-19.111h-3.8564zm15.677 1.9018c1.7697 0 3.064 0.23772 3.8564 0.69997 0.79242 0.47545 1.1886 1.2414 1.1886 2.3112v9.0072c0 1.083-0.42262 1.915-1.2811 2.4829-0.84524 0.5547-2.1131 0.81884-3.764 0.81884-1.7037 0-2.9584-0.26414-3.7772-0.80563-0.81884-0.54149-1.2282-1.3735-1.2282-2.4961v-9.0072c0-1.1226 0.383-1.915 1.1226-2.3508 0.73959-0.44904 2.0207-0.66035 3.8829-0.66035z"/>
  <path d="m380.08 670.61c1.6206 0.17996 2.8176 0.48304 3.5911 0.89979 1.3259 0.73877 2.0073 2.15 2.0073 4.2432v-0.40727c0 1.7333-0.86554 3.0877-2.5966 4.0727-1.7311 0.97555-4.1436 1.4681-7.2006 1.4681-3.3149 0-5.7826-0.45462-7.3848-1.3544-1.5838-0.90925-2.3941-2.3016-2.3941-4.1864v0.40727c0-1.9606 0.73664-3.3434 2.2099-4.1485 0.92079-0.49251 2.2283-0.83348 3.9594-1.0134-1.3996-0.1989-2.523-0.50198-3.3701-0.91873-1.4733-0.73876-2.2099-1.9132-2.2099-3.5234v0.37886c0-1.667 0.79188-2.9551 2.4125-3.8643 1.6022-0.90926 3.8857-1.3639 6.8507-1.3639 3.2228 0 5.58 0.41674 7.0717 1.2597 1.4733 0.83349 2.2283 2.1595 2.2283 3.9685v-0.37886c0 1.6101-0.68139 2.7846-2.0257 3.5328-0.79188 0.43568-1.8416 0.73877-3.1491 0.92819zm-4.1252-1.0703c1.5285 0 2.6519-0.27468 3.3885-0.81455 0.71822-0.53987 1.0865-1.3828 1.0865-2.5099v0.37886c0-1.1366-0.3499-1.9511-1.0497-2.4531-0.69981-0.50199-1.8416-0.75771-3.4254-0.75771-1.4733 0-2.5782 0.27467-3.3333 0.81454-0.73663 0.53039-1.1234 1.3355-1.1234 2.3963v-0.37886c0 1.1271 0.36831 1.97 1.105 2.5099 0.71821 0.53987 1.8416 0.81455 3.3517 0.81455zm-0.0737 2.1311c-1.8048 0-3.0754 0.28414-3.8305 0.85243-0.75505 0.55881-1.1234 1.506-1.1234 2.8225v-0.40727c0 1.4586 0.34991 2.4626 1.0313 2.993 0.6998 0.53039 2.0073 0.79559 3.9226 0.79559 1.7863 0 3.057-0.28414 3.8305-0.87137 0.75505-0.57775 1.1418-1.5533 1.1418-2.9172v0.40727c0-1.4207-0.3499-2.3868-1.0497-2.8982-0.68139-0.51146-1.9889-0.77666-3.9226-0.77666z"/>
  <path d="m411.37 721.35 12.431-17.02h-14.272v-2.0932h18.563v2.0932l-11.013 17.02h-5.7089z"/>
  <path d="m548.3 715.95c0 2.15-0.6998 3.6749-2.1178 4.5557-1.3996 0.88084-3.8489 1.3165-7.2927 1.3165-3.4253 0-5.8194-0.32202-7.1638-0.95661-1.3444-0.64405-2.081-1.8185-2.2467-3.5139v-0.56828h4.7697v0.56828c0.1105 0.80507 0.47881 1.3923 1.1418 1.7712 0.66298 0.36939 1.6574 0.55882 2.9834 0.55882 2.0442 0 3.4069-0.27467 4.1067-0.83349 0.71822-0.54934 1.0681-1.6291 1.0681-3.2392v-1.2786c0-1.1934-0.33148-2.0364-0.97604-2.5099-0.62614-0.47357-1.7679-0.71035-3.4069-0.71035-1.5653 0-2.7255 0.21784-3.4806 0.64405-0.77347 0.42622-1.1234 1.0703-1.105 1.9322h-4.917l0.3499-11.252h17.366v2.15h-12.983l-0.18416 6.0806c0.82871-0.42621 1.5101-0.73877 2.0626-0.94714 1.2339-0.46409 2.7255-0.69141 4.4935-0.69141 2.8176 0 4.7697 0.41674 5.8746 1.2408 1.105 0.82401 1.6574 2.2921 1.6574 4.4042v1.2786z"/>
  <path d="m582.9 673.51h-13.388v-1.97l11.528-12.445h6.685v12.332h4.2725v2.0837h-4.2725v4.6884h-4.825v-4.6884zm0-2.0837v-9.9639l-9.1342 9.9639h9.1342z"/>
  <path d="m591.2 541.67c0 1.5154-1.1234 3.2297-3.3885 5.1524-2.0442 1.7238-5.7089 4.2053-11.031 7.4635h14.77v2.0837h-19.502v-2.3205c5.3406-3.2297 9.079-5.7491 11.178-7.5582 2.1178-1.8185 3.1675-3.4192 3.1675-4.7925 0-0.77666-0.42356-1.4018-1.2707-1.8753-0.84713-0.4641-1.9521-0.70088-3.3148-0.70088-1.7679 0-3.0018 0.1989-3.6648 0.60617-0.66297 0.3978-0.97604 1.1082-0.92079 2.1311v0.56829h-4.8065v-0.56829c-0.20257-1.6007 0.47881-2.7941 2.0442-3.5897s4.0146-1.1934 7.3479-1.1934c3.0754 0 5.4143 0.39779 6.998 1.1744 1.6022 0.77665 2.3941 1.9227 2.3941 3.4192z"/>
  <path d="m539.51 511.98v-16.13l-0.95762 0.35992c-1.197 0.45462-2.744 0.92819-4.6224 1.4207v-2.2826c1.3996-0.37886 2.5598-0.73877 3.4622-1.0892 0.93921-0.35045 1.9705-0.81454 3.0939-1.3923h3.8305v19.113h-4.8065z"/>
  <path transform="matrix(.14492 -.026181 .026181 .14492 508.04 560.3)" d="m-204.82 291.65a52.319 52.319 0 1 1 -104.64 0 52.319 52.319 0 1 1 104.64 0z" fill-rule="evenodd" filter="url(#k)" opacity=".8"/>
  <path transform="matrix(.14492 -.026181 .026181 .14492 507.94 560.02)" d="m-204.82 291.65a52.319 52.319 0 1 1 -104.64 0 52.319 52.319 0 1 1 104.64 0z" fill-rule="evenodd"/>
  <path transform="matrix(.12561 -.022694 .022694 .12561 504.03 566.74)" d="m-204.82 291.65a52.319 52.319 0 1 1 -104.64 0 52.319 52.319 0 1 1 104.64 0z" fill="url(#o)" fill-rule="evenodd"/>
  <path transform="matrix(.2172 0 0 .2172 465.01 500.05)" d="m-257.16 243.62c-17.158 0-32.072 9.0279-40.562 22.531 11.164-10.63 26.221-17.188 42.812-17.188 11.38 0 22.033 3.1077 31.219 8.4688-8.6524-8.4687-20.389-13.812-33.469-13.812z" fill="url(#p)" fill-rule="evenodd" opacity=".8"/>
 </g>
</svg>
